<svg xmlns="http://www.w3.org/2000/svg" width="1200" height="420" viewBox="0 0 1200 420" role="img" aria-labelledby="t d">
<title id="t">Minnionise</title><desc id="d">Local-first AI voice lab banner</desc>
<defs><linearGradient id="bg" x1="0" y1="0" x2="1" y2="1"><stop stop-color="#090b10"/><stop offset="1" stop-color="#111a2a"/></linearGradient><radialGradient id="glow"><stop stop-color="#ffd72e" stop-opacity=".5"/><stop offset="1" stop-color="#ffd72e" stop-opacity="0"/></radialGradient><filter id="blur"><feGaussianBlur stdDeviation="28"/></filter></defs>
<rect width="1200" height="420" rx="38" fill="url(#bg)"/><circle cx="1030" cy="38" r="220" fill="url(#glow)" filter="url(#blur)"/><circle cx="80" cy="410" r="180" fill="#16549d" opacity=".18" filter="url(#blur)"/>
<g transform="translate(790 82)"><circle cx="120" cy="110" r="83" fill="#ffd72e"/><rect x="52" y="70" width="136" height="54" rx="27" fill="#303744"/><circle cx="96" cy="97" r="35" fill="#dbe3eb" stroke="#151a21" stroke-width="12"/><circle cx="144" cy="97" r="35" fill="#dbe3eb" stroke="#151a21" stroke-width="12"/><circle cx="96" cy="97" r="10" fill="#151a21"/><circle cx="144" cy="97" r="10" fill="#151a21"/><path d="M83 165c24 20 51 20 75 0" fill="none" stroke="#151a21" stroke-width="10" stroke-linecap="round"/><path d="M31 240h178" stroke="#ffd72e" stroke-opacity=".25" stroke-width="2"/><text x="120" y="273" fill="#9ca6b5" font-family="Arial,sans-serif" font-size="13" text-anchor="middle" letter-spacing="3">LOCAL AI • LOCAL VOICE</text></g>
<g font-family="Arial,sans-serif"><text x="72" y="105" fill="#ffd72e" font-size="15" font-weight="700" letter-spacing="5">BANANA LINGUISTICS // LOCAL-FIRST</text><text x="70" y="190" fill="#f8f7ef" font-size="82" font-weight="900" letter-spacing="-5">MINNION<tspan fill="#ffd72e">ISE</tspan></text><text x="73" y="245" fill="#a1aab8" font-size="24">Say anything. Learn it the Minnion way.</text><g transform="translate(73 286)"><rect width="155" height="44" rx="14" fill="#ffd72e"/><text x="77" y="28" text-anchor="middle" fill="#151515" font-size="13" font-weight="800">NO MODEL MODE</text><rect x="168" width="124" height="44" rx="14" fill="#ffffff10" stroke="#ffffff22"/><text x="230" y="28" text-anchor="middle" fill="#d5d9e0" font-size="13" font-weight="800">OLLAMA</text><rect x="305" width="140" height="44" rx="14" fill="#ffffff10" stroke="#ffffff22"/><text x="375" y="28" text-anchor="middle" fill="#d5d9e0" font-size="13" font-weight="800">LM STUDIO</text><rect x="458" width="148" height="44" rx="14" fill="#ffffff10" stroke="#ffffff22"/><text x="532" y="28" text-anchor="middle" fill="#d5d9e0" font-size="13" font-weight="800">PHONE LINK</text></g></g>
</svg>
